<svg width="29" height="15" viewBox="0 0 29 15" fill="none" xmlns="http://www.w3.org/2000/svg">
<path d="M20.5 0.500022C20.4063 0.592985 20.3319 0.703586 20.2811 0.825445C20.2303 0.947304 20.2042 1.07801 20.2042 1.21002C20.2042 1.34203 20.2303 1.47274 20.2811 1.5946C20.3319 1.71646 20.4063 1.82706 20.5 1.92002L25.1 6.52002H1.56C1.29478 6.52002 1.04043 6.62538 0.852891 6.81291C0.665354 7.00045 0.559998 7.25481 0.559998 7.52002C0.559998 7.78524 0.665354 8.03959 0.852891 8.22713C1.04043 8.41466 1.29478 8.52002 1.56 8.52002H25.08L20.5 13.09C20.3137 13.2774 20.2092 13.5308 20.2092 13.795C20.2092 14.0592 20.3137 14.3127 20.5 14.5C20.6874 14.6863 20.9408 14.7908 21.205 14.7908C21.4692 14.7908 21.7226 14.6863 21.91 14.5L28.27 8.14002C28.3556 8.05789 28.4237 7.9593 28.4702 7.85018C28.5168 7.74106 28.5408 7.62365 28.5408 7.50502C28.5408 7.38639 28.5168 7.26899 28.4702 7.15986C28.4237 7.05074 28.3556 6.95215 28.27 6.87002L21.92 0.500022C21.827 0.406294 21.7164 0.331899 21.5946 0.281131C21.4727 0.230362 21.342 0.204224 21.21 0.204224C21.078 0.204224 20.9473 0.230362 20.8254 0.281131C20.7036 0.331899 20.593 0.406294 20.5 0.500022Z" fill="#FFA051"/>
</svg>
