<svg width="29" height="16" viewBox="0 0 29 16" fill="none" xmlns="http://www.w3.org/2000/svg">
<path d="M20.4496 1.00259C20.3559 1.09555 20.2815 1.20615 20.2308 1.32801C20.18 1.44987 20.1538 1.58057 20.1538 1.71259C20.1538 1.8446 20.18 1.9753 20.2308 2.09716C20.2815 2.21902 20.3559 2.32962 20.4496 2.42259L25.0496 7.02259H1.50964C1.24443 7.02259 0.990073 7.12794 0.802537 7.31548C0.615 7.50301 0.509644 7.75737 0.509644 8.02259C0.509644 8.2878 0.615 8.54216 0.802537 8.72969C0.990073 8.91723 1.24443 9.02259 1.50964 9.02259H25.0296L20.4496 13.5926C20.2634 13.7799 20.1589 14.0334 20.1589 14.2976C20.1589 14.5618 20.2634 14.8152 20.4496 15.0026C20.637 15.1888 20.8905 15.2934 21.1546 15.2934C21.4188 15.2934 21.6723 15.1888 21.8596 15.0026L28.2196 8.64258C28.3052 8.56046 28.3734 8.46187 28.4199 8.35274C28.4664 8.24362 28.4904 8.12621 28.4904 8.00758C28.4904 7.88896 28.4664 7.77155 28.4199 7.66243C28.3734 7.5533 28.3052 7.45471 28.2196 7.37259L21.8696 1.00259C21.7767 0.908857 21.6661 0.834463 21.5442 0.783694C21.4224 0.732926 21.2917 0.706787 21.1596 0.706787C21.0276 0.706787 20.8969 0.732926 20.7751 0.783694C20.6532 0.834463 20.5426 0.908857 20.4496 1.00259Z" fill="black"/>
</svg>
