<svg width="14" height="15" viewBox="0 0 14 15" fill="none" xmlns="http://www.w3.org/2000/svg">
<path d="M12.2217 0.413793L13.8858 10.3219C13.924 10.5507 13.8673 10.8048 13.7282 11.0284C13.589 11.2519 13.3787 11.4267 13.1436 11.5142C12.9085 11.6018 12.6678 11.5949 12.4743 11.4952C12.2808 11.3954 12.1505 11.211 12.1119 10.9823L10.8146 3.26231L1.5193 13.9108C1.34489 14.1106 1.11309 14.2459 0.874877 14.2869C0.636668 14.3279 0.411569 14.2713 0.2491 14.1294C0.0866311 13.9876 0.00010047 13.7722 0.00854432 13.5307C0.0169882 13.2891 0.119715 13.0412 0.294125 12.8414L9.58937 2.19283L1.76485 1.95029C1.53482 1.94094 1.33651 1.83586 1.21307 1.65792C1.08963 1.47997 1.05104 1.24356 1.1057 1.00011C1.16036 0.756664 1.30385 0.525876 1.50495 0.357959C1.70604 0.190041 1.94848 0.09858 2.17951 0.103472L12.2217 0.413793Z" fill="white"/>
</svg>
